<svg viewBox="0 0 543 85" xmlns="http://www.w3.org/2000/svg">
  <!-- PatroCMS Logo - Sample SVG File -->
  <!-- You can easily modify this file to match your brand -->
  
  <path fill="#F1F2F2" d="m58.88 29.24c0 22.8-17.26 26.4-26 26.4h-12.59v25.89h-19.67v-78.68h32.26c8.74 0 26 3.6 26 26.39zm-20.8 0.01c0-7.54-4.95-9.77-9.93-9.77h-7.86v19.53h7.86c4.98 0 9.93-2.22 9.93-9.76z"/>
  <path fill="#F1F2F2" d="m105.11 28.12h18.57v53.55h-18.57v-4.63c-4.46 4.11-10.19 6.58-16.44 6.58-14.21 0-25.73-12.77-25.73-28.52 0-15.76 11.52-28.53 25.73-28.53 6.25 0 11.98 2.48 16.44 6.59zm0 26.97c0-6.78-4.82-12.27-11.32-12.27-6.5 0-11.77 5.49-11.77 12.27 0 6.78 5.27 12.28 11.77 12.28 6.5 0 11.32-5.5 11.32-12.28z"/>
  <path fill="#F1F2F2" d="m173.24 68.19v15.42c-10.87 0-27.94-2.3-27.94-20.9v-18.13h-5.87v-16.38h5.87v-16.04h18.57v47.29c0 3.19 1.73 8.74 9.37 8.74z"/>
  <path fill="#06b6d4" d="m160.05 36.88c0-5.86 4.6-10.62 10.29-10.62 5.68 0 10.29 4.76 10.29 10.62 0 5.87-4.61 10.63-10.29 10.63-5.69 0-10.29-4.76-10.29-10.63z"/>
  <path fill="#F1F2F2" d="m200.08 81.6v-53.43h18.58v53.43z"/>
  <path fill="#06b6d4" d="m214.08 36.89c0-5.87 4.61-10.63 10.29-10.63 5.69 0 10.3 4.76 10.3 10.63 0 5.87-4.61 10.62-10.3 10.62-5.68 0-10.29-4.75-10.29-10.62z"/>
  <path fill="#F1F2F2" d="m298.21 54.93c0 15.84-12.35 28.83-31.27 28.83-18.91 0-31.26-12.99-31.26-28.83 0-15.85 12.35-28.7 31.26-28.7 18.92 0 31.27 12.85 31.27 28.7zm-19.39 0.07c0-6.86-5.32-12.42-11.88-12.42-6.55 0-11.87 5.56-11.87 12.42 0 6.85 5.32 12.41 11.87 12.41 6.56 0 11.88-5.56 11.88-12.41z"/>
  <path fill="#F1F2F2" d="m381.15 62.53c-6.66 12.91-19.78 21.66-36.02 21.66-25.73 0-40.78-18.66-40.78-41.69 0-23.03 15.05-41.69 40.78-41.69 16.2 0 29.15 8.56 35.83 21.24l-19.36 8.19c-3.26-7.02-9.35-11.73-16.92-11.73-12.32 0-19.51 10.74-19.51 23.99 0 13.25 7.19 23.99 19.51 23.99 7.55 0 13.69-4.77 16.96-11.87z"/>
  <path fill="#F1F2F2" d="m481.3 81.53h-19.67l-6.82-44.45-12.73 32.69-4.57 11.76h-8.66l-4.58-11.76-12.73-32.69-6.82 44.45h-19.67l13.16-78.67v-0.01h18.58 1.09l15.3 42.29 15.29-42.29h1.09 18.58z"/>
  <path fill="#F1F2F2" d="m542.38 57.05c0 18.2-14.32 26.66-29.64 26.66-15.32 0-26.9-8.85-26.9-8.85l8.53-16.46c5.18 5.42 13.64 8 18.37 8 4.73 0 8.73-3.66 8.73-7.48 0-13.85-32.48-5.1-32.48-32.28 0-17.43 12.48-25.83 26.49-25.83 13.51 0 23.75 6.35 23.75 6.35l-7.92 15.94c0 0-6.62-5.32-12.79-5.32-4.6 0-8.72 1.71-8.72 6.77 0 11.77 32.57 4.2 32.58 32.5z"/>
  
  <!-- 
    HOW TO CUSTOMIZE:
    
    1. Edit this file directly in your code editor
    2. Change fill colors (#F1F2F2 for main text, #06b6d4 for accent dots)
    3. Replace with your own logo design
    4. Upload to R2: wrangler r2 object put MEDIA_BUCKET/logo.svg --file=./packages/core/assets/logo.svg
    5. Or place in /files/logo.svg directory
    
    Benefits of external SVG:
    - Easy to update across all pages
    - No need to edit multiple template files
    - Can be managed via admin settings in future
    - Cached by CDN for fast loading
  -->
</svg>